<svg xmlns="http://www.w3.org/2000/svg" xmlns:oryx="http://oryx-editor.org" id="_BD340994-EC93-4FD5-8C0A-0007F1A81F43" width="980" height="420" xmlns:xlink="http://www.w3.org/1999/xlink" xmlns:svg="http://www.w3.org/2000/svg"><defs><marker id="_CD705A04-74E0-4CD7-BB76-4E02B59C8188start" refX="1" refY="5" markerUnits="userSpaceOnUse" markerWidth="17" markerHeight="11" orient="auto" fill="#000000" stroke="#000000"> 	  		<path id="_CD705A04-74E0-4CD7-BB76-4E02B59C8188conditional" d="M 0 5 L 8 0 L 16 5 L 8 10 L 0 5" fill="white" stroke="#000000" stroke-width="1" display="none"/> 			<path id="_CD705A04-74E0-4CD7-BB76-4E02B59C8188default" d="M 5 0 L 11 10" fill="white" stroke="#000000" stroke-width="1" display="none"/> 	  	</marker><marker id="_CD705A04-74E0-4CD7-BB76-4E02B59C8188end" refX="15" refY="6" markerUnits="userSpaceOnUse" markerWidth="15" markerHeight="12" orient="auto" fill="#000000" stroke="#000000"> 	  		<path id="_CD705A04-74E0-4CD7-BB76-4E02B59C8188frame2" d="M 0 1 L 15 6 L 0 11z" fill="#000000" stroke="#000000" stroke-linejoin="round" stroke-width="2"/> 	  	</marker><marker id="_3E22ABA0-F845-4607-BD35-203EA21959DCstart" refX="1" refY="5" markerUnits="userSpaceOnUse" markerWidth="17" markerHeight="11" orient="auto" fill="#000000" stroke="#000000"> 	  		<path id="_3E22ABA0-F845-4607-BD35-203EA21959DCconditional" d="M 0 5 L 8 0 L 16 5 L 8 10 L 0 5" fill="white" stroke="#000000" stroke-width="1" display="none"/> 			<path id="_3E22ABA0-F845-4607-BD35-203EA21959DCdefault" d="M 5 0 L 11 10" fill="white" stroke="#000000" stroke-width="1" display="none"/> 	  	</marker><marker id="_3E22ABA0-F845-4607-BD35-203EA21959DCend" refX="15" refY="6" markerUnits="userSpaceOnUse" markerWidth="15" markerHeight="12" orient="auto" fill="#000000" stroke="#000000"> 	  		<path id="_3E22ABA0-F845-4607-BD35-203EA21959DCframe2" d="M 0 1 L 15 6 L 0 11z" fill="#000000" stroke="#000000" stroke-linejoin="round" stroke-width="2"/> 	  	</marker></defs><g stroke="none" font-family="Verdana, sans-serif" font-size-adjust="none" font-style="normal" font-variant="normal" font-weight="normal" line-heigth="normal" font-size="12"><g class="stencils" transform="translate(15, 16)"><g class="me"/><g class="children"><g id="_31BB9B56-874F-4DD2-B215-8537735F9BB8" bpmn2nodeid="_94B2138D-9C18-43DC-87CF-2C4654ADE618"><g class="stencils" transform="translate(30, 45)"><g class="me"><g pointer-events="painted" id="_31BB9B56-874F-4DD2-B215-8537735F9BB8">         <defs id="_31BB9B56-874F-4DD2-B215-8537735F9BB8__31BB9B56-874F-4DD2-B215-8537735F9BB8_3"> 		<radialGradient id="_31BB9B56-874F-4DD2-B215-8537735F9BB8background" cx="0%" cy="10%" r="100%" fx="20%" fy="10%"> 			<stop offset="0%" stop-color="#ffffff" stop-opacity="1" id="_31BB9B56-874F-4DD2-B215-8537735F9BB8__31BB9B56-874F-4DD2-B215-8537735F9BB8_4"/> 			<stop id="_31BB9B56-874F-4DD2-B215-8537735F9BB8fill_el" offset="100%" stop-color="#ffffff" stop-opacity="1"/> 		</radialGradient> 	</defs> 	   	 	<rect id="_31BB9B56-874F-4DD2-B215-8537735F9BB8border" oryx:resize="vertical horizontal" x="0" y="0" width="910" height="334" stroke="#000000" stroke-width="1" fill="url(#_31BB9B56-874F-4DD2-B215-8537735F9BB8background) white"/> 	 	 	 	<path id="_31BB9B56-874F-4DD2-B215-8537735F9BB8frame2" style="fill:none;stroke-width:1" d=" M0 0  L0 334 " oryx:anchors="left top bottom" stroke="#000000"/> 	 	undefined 	     <text x="50" y="167" oryx:rotate="270" font-size="12" id="_31BB9B56-874F-4DD2-B215-8537735F9BB8text_name" oryx:align="middle center" oryx:anchors="left" oryx:fittoelem="frame" stroke="black" stroke-width="0pt" letter-spacing="-0.01px" fill="#000000" text-anchor="middle" transform="rotate(270 50 167)" visibility="inherit" oryx:fontSize="12"><tspan x="50" y="167" dy="5">Profesional Financiero</tspan></text>   </g></g><g class="children" style="overflow:hidden"><g id="_0B1185B6-4CFB-4995-80AC-667244188D2C" bpmn2nodeid="processStartEvent"><g class="stencils" transform="translate(120, 150)"><g class="me"><g pointer-events="fill" id="_0B1185B6-4CFB-4995-80AC-667244188D2C">        <defs id="_0B1185B6-4CFB-4995-80AC-667244188D2C__0B1185B6-4CFB-4995-80AC-667244188D2C_5"> 		<radialGradient id="_0B1185B6-4CFB-4995-80AC-667244188D2Cbackground" cx="10%" cy="10%" r="100%" fx="10%" fy="10%"> 			<stop offset="0%" stop-color="#ffffff" stop-opacity="1" id="_0B1185B6-4CFB-4995-80AC-667244188D2C__0B1185B6-4CFB-4995-80AC-667244188D2C_6"/> 			<stop id="_0B1185B6-4CFB-4995-80AC-667244188D2Cfill_el" offset="100%" stop-color="#9acd32" stop-opacity="1"/> 		</radialGradient> 	</defs> 	     <circle id="_0B1185B6-4CFB-4995-80AC-667244188D2Cbg_frame" cx="15" cy="15" r="15" stroke="#000000" fill="url(#_0B1185B6-4CFB-4995-80AC-667244188D2Cbackground) white" stroke-width="1" style="stroke-dasharray: 5.5, 3"/>      <circle id="_0B1185B6-4CFB-4995-80AC-667244188D2Cframe" cx="15" cy="15" r="15" stroke="#000000" fill="none" stroke-width="1" display="inherit"/>  	<text font-size="11" id="_0B1185B6-4CFB-4995-80AC-667244188D2Ctext_name" x="15" y="32" oryx:align="top center" stroke="black" stroke-width="0pt" letter-spacing="-0.01px" fill="#000000" text-anchor="middle" transform="rotate(0 15 32)" visibility="inherit" oryx:fontSize="11"/>   </g></g><g class="children" style="overflow:hidden"/><g class="edge"/></g><g class="controls"><g class="dockers"/><g class="magnets" transform="translate(120, 150)"><g pointer-events="all" display="none" transform="translate(7, 7)"><circle cx="8" cy="8" r="4" stroke="none" fill="red" fill-opacity="0.3"/></g></g></g></g><g id="_2E54C485-A179-4B84-8CF7-07D865B7D26C" bpmn2nodeid="_FF6F517D-D881-4841-AD80-24E19E60FACF"><g class="stencils" transform="translate(315, 127)"><g class="me"><g pointer-events="fill" oryx:minimumSize="50 40" id="_2E54C485-A179-4B84-8CF7-07D865B7D26C">   	<defs id="_2E54C485-A179-4B84-8CF7-07D865B7D26C__2E54C485-A179-4B84-8CF7-07D865B7D26C_17"> 		<radialGradient id="_2E54C485-A179-4B84-8CF7-07D865B7D26Cbackground" cx="10%" cy="10%" r="100%" fx="10%" fy="10%"> 			<stop offset="0%" stop-color="#ffffff" stop-opacity="1" id="_2E54C485-A179-4B84-8CF7-07D865B7D26C__2E54C485-A179-4B84-8CF7-07D865B7D26C_18"/> 			<stop id="_2E54C485-A179-4B84-8CF7-07D865B7D26Cfill_el" offset="100%" stop-color="#fafad2" stop-opacity="1"/> 		</radialGradient> 		<radialGradient id="_2E54C485-A179-4B84-8CF7-07D865B7D26Cborderbackground" cx="10%" cy="10%" r="100%" fx="10%" fy="10%"> 			<stop offset="0%" stop-color="#ffffff" stop-opacity="1" id="_2E54C485-A179-4B84-8CF7-07D865B7D26C__2E54C485-A179-4B84-8CF7-07D865B7D26C_19"/> 			<stop id="_2E54C485-A179-4B84-8CF7-07D865B7D26Cfill_border" offset="100%" stop-color="#000000" stop-opacity="1" stroke="#000000"/> 		</radialGradient> 	</defs> 	 	<rect id="_2E54C485-A179-4B84-8CF7-07D865B7D26Ctext_frame" oryx:anchors="bottom top right left" x="1" y="1" width="94" height="79" rx="10" ry="10" stroke="none" stroke-width="0" fill="none"/> 	<rect id="_2E54C485-A179-4B84-8CF7-07D865B7D26Cbg_frame" oryx:resize="vertical horizontal" x="0" y="0" width="100" height="80" rx="10" ry="10" stroke="#000000" stroke-width="1" fill="url(#_2E54C485-A179-4B84-8CF7-07D865B7D26Cbackground) #ffffcc"/> 		<text font-size="12" id="_2E54C485-A179-4B84-8CF7-07D865B7D26Ctext_name" x="50" y="40" oryx:align="middle center" oryx:fittoelem="text_frame" stroke="black" text-anchor="middle" stroke-width="0pt" letter-spacing="-0.01px" fill="#000000" transform="rotate(0 50 40)" visibility="inherit" oryx:fontSize="12"><tspan x="50" y="40" dy="-7" id="ext-gen640">Confirmar </tspan><tspan x="50" y="40" dy="5" id="ext-gen641">abono </tspan><tspan x="50" y="40" dy="17" id="ext-gen620">devolucion</tspan></text>     <g id="_2E54C485-A179-4B84-8CF7-07D865B7D26CmanualTask" transform="scale(0.7,0.7) translate(8,8)" display="none">     	<path oryx:anchors="top left" id="_2E54C485-A179-4B84-8CF7-07D865B7D26Cframe" style="opacity:1;fill:none;fill-opacity:1;stroke-width:1" d="M0.5,3.751l4.083-3.25c0,0,11.166,0.083,12.083,0.083s-2.417,2.917-1.5,2.917     s11.667,0,12.584,0c1.166,1.708-0.168,3.167-0.834,3.667s0.875,1.917-1,4.417c-0.75,0.25,0.75,1.875-1.333,3.333     c-1.167,0.583,0.583,1.542-1.25,2.833c-1.167,0-20.833,0.083-20.833,0.083l-2-1.333V3.751z" stroke="#000000"/> 		<path id="_2E54C485-A179-4B84-8CF7-07D865B7D26Cframe2" oryx:anchors="top left" style="opacity:1;fill:none;stroke-width:2" d="M 13.5 7 L 27 7" stroke="#000000"/> 		<path id="_2E54C485-A179-4B84-8CF7-07D865B7D26Cframe3" oryx:anchors="top left" style="opacity:1;fill:none;stroke-width:2" d="M 13.5 11 L 26 11" stroke="#000000"/> 		<path id="_2E54C485-A179-4B84-8CF7-07D865B7D26Cframe4" oryx:anchors="top left" style="opacity:1;fill:none;stroke-width:1.5" d="M 14 14.5 L 25 14.5" stroke="#000000"/> 		<path id="_2E54C485-A179-4B84-8CF7-07D865B7D26Cframe5" oryx:anchors="top left" style="opacity:1;fill:none;stroke-width:1.5" d="M 8.2 3.1 L 15 3.1" stroke="#000000"/> 	</g> 	 	<g id="_2E54C485-A179-4B84-8CF7-07D865B7D26CbusinessRuleTask" transform="scale(0.7,0.7) translate(8,8)" display="none"> 		<rect id="_2E54C485-A179-4B84-8CF7-07D865B7D26Cframe6" oryx:anchors="top left" x="0" y="0" width="22" height="4" style="opacity:1;fill:#B3B1B3;fill-opacity:1;" stroke="#000000"/> 		<rect id="_2E54C485-A179-4B84-8CF7-07D865B7D26Cframe7" oryx:anchors="top left" x="0" y="4" style="opacity:1;fill:none;" width="22" height="12" stroke="#000000"/> 		<path id="_2E54C485-A179-4B84-8CF7-07D865B7D26Cframe8" oryx:anchors="top left" style="opacity:1;fill:none;" d="M 0 10 L 22 10" stroke="#000000"/> 		<path id="_2E54C485-A179-4B84-8CF7-07D865B7D26Cframe9" oryx:anchors="top left" style="opacity:1; fill:none;" d="M 7 4 L 7 16" stroke="#000000"/> 	</g> 	 	<g id="_2E54C485-A179-4B84-8CF7-07D865B7D26CscriptTask" transform="scale(0.7,0.7) translate(8,8)" display="none"> 		<path oryx:anchors="top left" id="_2E54C485-A179-4B84-8CF7-07D865B7D26Cframe10" style="opacity:1;fill:none;" stroke="#000000" d="M6.402,0.5h14.5c0,0-5.833,2.833-5.833,5.583s4.417,6,4.417,9.167    s-4.167,5.083-4.167,5.083H0.235c0,0,5-2.667,5-5s-4.583-6.75-4.583-9.25S6.402,0.5,6.402,0.5z"/> 		<path oryx:anchors="top left" id="_2E54C485-A179-4B84-8CF7-07D865B7D26Cframe11" style="opacity:1;fill:none;stroke-width:1.5" d="M 3.5 4.5 L 13.5 4.5" stroke="#000000"/> 		<path oryx:anchors="top left" id="_2E54C485-A179-4B84-8CF7-07D865B7D26Cframe12" style="opacity:1;fill:none;stroke-width:1.5" d="M 3.8 8.5 L 13.8 8.5" stroke="#000000"/> 		<path oryx:anchors="top left" id="_2E54C485-A179-4B84-8CF7-07D865B7D26Cframe13" style="opacity:1;fill:none;stroke-width:1.5" d="M 6.3 12.5 L 16.3 12.5" stroke="#000000"/> 		<path oryx:anchors="top left" id="_2E54C485-A179-4B84-8CF7-07D865B7D26Cframe14" style="opacity:1;fill:none;stroke-width:1.5" d="M 6.5 16.5 L 16.5 16.5" stroke="#000000"/> 	</g> 	 	<g id="_2E54C485-A179-4B84-8CF7-07D865B7D26CuserTask" transform="scale(0.7,0.7) translate(8,8)" display="inherit"> 		<path id="_2E54C485-A179-4B84-8CF7-07D865B7D26Cframe15" oryx:anchors="top left" style="opacity:1;fill:#F4F6F7" stroke="#000000" d="M0.585,24.167h24.083v-7.833c0,0-2.333-3.917-7.083-5.167h-9.25    c-4.417,1.333-7.833,5.75-7.833,5.75L0.585,24.167z"/> 		<path id="_2E54C485-A179-4B84-8CF7-07D865B7D26Cframe16" oryx:anchors="top left" style="opacity:1;fill:none" d="M 6 20 L 6 24" stroke="#000000"/> 		<path id="_2E54C485-A179-4B84-8CF7-07D865B7D26Cframe17" oryx:anchors="top left" style="opacity:1;fill:none" d="M 20 20 L 20 24" stroke="#000000"/> 		<circle id="_2E54C485-A179-4B84-8CF7-07D865B7D26Cframe18" oryx:anchors="top left" fill="black" cx="13.002" cy="5.916" r="5.417" stroke="#000000"/> 		<path id="_2E54C485-A179-4B84-8CF7-07D865B7D26Cframe19" oryx:anchors="top left" style="opacity:1;fill:#F0EFF0;" stroke="#000000" d="M8.043,7.083c0,0,2.814-2.426,5.376-1.807s4.624-0.693,4.624-0.693    c0.25,1.688,0.042,3.75-1.458,5.584c0,0,1.083,0.75,1.083,1.5s0.125,1.875-1,3s-5.5,1.25-6.75,0S8.668,12.834,8.668,12    s0.583-1.25,1.25-1.917C8.835,9.5,7.419,7.708,8.043,7.083z"/> 	</g> 	 	<g id="_2E54C485-A179-4B84-8CF7-07D865B7D26CserviceTask" transform="scale(0.7,0.7) translate(8,8)" display="none"> 		<polygon oryx:anchors="top left" id="_2E54C485-A179-4B84-8CF7-07D865B7D26Cframe20" style="opacity:1;fill:#ffffff" stroke="#000000" points="15.392,5.064 17.954,2.502 20.347,4.895 17.786,7.455     18.729,9.732 22.353,9.732 22.353,13.115 18.731,13.115 17.788,15.392 20.351,17.955 17.958,20.347 15.397,17.786 13.12,18.729     13.12,22.353 9.737,22.353 9.737,18.731 7.46,17.788 4.897,20.35 2.506,17.958 5.066,15.397 4.124,13.12 0.5,13.12 0.5,9.737     4.121,9.737 5.065,7.461 2.503,4.898 4.895,2.506 7.455,5.066 9.732,4.125 9.732,0.5 13.116,0.5 13.116,4.121 "/> 		<circle oryx:anchors="top left" id="_2E54C485-A179-4B84-8CF7-07D865B7D26Cframe21" style="opacity:1;fill:none" stroke="#000000" cx="11.427" cy="11.426" r="3.714"/> 		<polygon oryx:anchors="top left" id="_2E54C485-A179-4B84-8CF7-07D865B7D26Cframe22" style="opacity:1;fill:#ffffff" stroke="#000000" points="21.392,11.064 23.954,8.502 26.347,10.895 23.786,13.455     24.729,15.732 28.353,15.732 28.353,19.115 24.731,19.115 23.788,21.392 26.351,23.955 23.958,26.347 21.397,23.786 19.12,24.729     19.12,28.353 15.737,28.353 15.737,24.731 13.46,23.788 10.897,26.35 8.506,23.958 11.066,21.397 10.124,19.12 6.5,19.12     6.5,15.737 10.121,15.737 11.065,13.461 8.503,10.898 10.895,8.506 13.455,11.066 15.732,10.125 15.732,6.5 19.116,6.5     19.116,10.121 "/> 		<circle oryx:anchors="top left" id="_2E54C485-A179-4B84-8CF7-07D865B7D26Cframe23" style="opacity:1;fill:none;" stroke="#000000" cx="17.427" cy="17.426" r="3.714"/> 	</g> 	 	<g id="_2E54C485-A179-4B84-8CF7-07D865B7D26CsendTask" display="none"> 		<path id="_2E54C485-A179-4B84-8CF7-07D865B7D26Cstframe24" oryx:anchors="left top" stroke="#FFFFFF" fill="black" stroke-width="1" d="M8,11 L8,21 L24,21 L24,11 L16,17z"/> 		<path id="_2E54C485-A179-4B84-8CF7-07D865B7D26Cstframe25" oryx:anchors="left top" stroke="#FFFFFF" fill="black" stroke-width="1" d="M7,10 L16,17 L25 10z"/> 	</g> 	 	<g id="_2E54C485-A179-4B84-8CF7-07D865B7D26CreceiveTask" display="none"> 		<path id="_2E54C485-A179-4B84-8CF7-07D865B7D26Cframe26" oryx:anchors="left top" stroke="#000000" fill="none" stroke-width="1" d="M8,11 L8,21 L24,21 L24,11z M8,11 L16,17 L24,11"/> 	</g> 	 	<g id="_2E54C485-A179-4B84-8CF7-07D865B7D26Cnone" display="inherit"/>  	<g id="_2E54C485-A179-4B84-8CF7-07D865B7D26Csequential" display="none">         <path oryx:anchors="bottom" fill="none" stroke="#000000" stroke-width="2" d="M46,76h10M46,72h10 M46,68h10" id="_2E54C485-A179-4B84-8CF7-07D865B7D26C__2E54C485-A179-4B84-8CF7-07D865B7D26C_20"/>     </g>   </g></g><g class="children" style="overflow:hidden"/><g class="edge"/></g><g class="controls"><g class="dockers"/><g class="magnets" transform="translate(315, 127)"><g pointer-events="all" display="none" transform="translate(-7, 12)"><circle cx="8" cy="8" r="4" stroke="none" fill="red" fill-opacity="0.3"/></g><g pointer-events="all" display="none" transform="translate(-7, 32)"><circle cx="8" cy="8" r="4" stroke="none" fill="red" fill-opacity="0.3"/></g><g pointer-events="all" display="none" transform="translate(-7, 52)"><circle cx="8" cy="8" r="4" stroke="none" fill="red" fill-opacity="0.3"/></g><g pointer-events="all" display="none" transform="translate(17, 71)"><circle cx="8" cy="8" r="4" stroke="none" fill="red" fill-opacity="0.3"/></g><g pointer-events="all" display="none" transform="translate(42, 71)"><circle cx="8" cy="8" r="4" stroke="none" fill="red" fill-opacity="0.3"/></g><g pointer-events="all" display="none" transform="translate(67, 71)"><circle cx="8" cy="8" r="4" stroke="none" fill="red" fill-opacity="0.3"/></g><g pointer-events="all" display="none" transform="translate(91, 12)"><circle cx="8" cy="8" r="4" stroke="none" fill="red" fill-opacity="0.3"/></g><g pointer-events="all" display="none" transform="translate(91, 32)"><circle cx="8" cy="8" r="4" stroke="none" fill="red" fill-opacity="0.3"/></g><g pointer-events="all" display="none" transform="translate(91, 52)"><circle cx="8" cy="8" r="4" stroke="none" fill="red" fill-opacity="0.3"/></g><g pointer-events="all" display="none" transform="translate(17, -7)"><circle cx="8" cy="8" r="4" stroke="none" fill="red" fill-opacity="0.3"/></g><g pointer-events="all" display="none" transform="translate(42, -7)"><circle cx="8" cy="8" r="4" stroke="none" fill="red" fill-opacity="0.3"/></g><g pointer-events="all" display="none" transform="translate(67, -7)"><circle cx="8" cy="8" r="4" stroke="none" fill="red" fill-opacity="0.3"/></g><g pointer-events="all" display="none" transform="translate(42, 32)"><circle cx="8" cy="8" r="4" stroke="none" fill="red" fill-opacity="0.3"/></g></g></g></g><g id="_EC3CE996-F677-4DDD-9712-F47769DDD154" bpmn2nodeid="_48BB91B3-077B-497A-A8A1-A373CEA6EC06"><g class="stencils" transform="translate(615, 153)"><g class="me"><g pointer-events="fill" id="_EC3CE996-F677-4DDD-9712-F47769DDD154">      <defs id="_EC3CE996-F677-4DDD-9712-F47769DDD154__EC3CE996-F677-4DDD-9712-F47769DDD154_5"> 		<radialGradient id="_EC3CE996-F677-4DDD-9712-F47769DDD154background" cx="10%" cy="10%" r="100%" fx="10%" fy="10%"> 			<stop offset="0%" stop-color="#ffffff" stop-opacity="1" id="_EC3CE996-F677-4DDD-9712-F47769DDD154__EC3CE996-F677-4DDD-9712-F47769DDD154_6"/> 			<stop id="_EC3CE996-F677-4DDD-9712-F47769DDD154fill_el" offset="100%" stop-color="#ff6347" stop-opacity="1"/> 		</radialGradient> 	</defs> 	     <circle id="_EC3CE996-F677-4DDD-9712-F47769DDD154bg_frame" cx="14" cy="14" r="14" stroke="#000000" fill="url(#_EC3CE996-F677-4DDD-9712-F47769DDD154background) white" stroke-width="3"/> 	<text font-size="11" id="_EC3CE996-F677-4DDD-9712-F47769DDD154text_name" x="14" y="30" oryx:align="top center" stroke="black" stroke-width="0pt" letter-spacing="-0.01px" fill="#000000" text-anchor="middle" transform="rotate(0 14 30)" visibility="inherit" oryx:fontSize="11"><tspan x="14" y="30" dy="11">Fin</tspan></text>   </g></g><g class="children" style="overflow:hidden"/><g class="edge"/></g><g class="controls"><g class="dockers"/><g class="magnets" transform="translate(615, 153)"><g pointer-events="all" display="none" transform="translate(6, 6)"><circle cx="8" cy="8" r="4" stroke="none" fill="red" fill-opacity="0.3"/></g></g></g></g></g><g class="edge"/></g><g class="controls"><g class="dockers"/><g class="magnets" transform="translate(30, 45)"><g pointer-events="all" display="none" transform="translate(447, 159)"><circle cx="8" cy="8" r="4" stroke="none" fill="red" fill-opacity="0.3"/></g></g></g></g></g><g class="edge"><g id="_CD705A04-74E0-4CD7-BB76-4E02B59C8188" bpmn2nodeid="_9E085F47-9CBE-420C-8856-76B7ED47556A"><g class="stencils"><g class="me"><g pointer-events="painted" bpmn2nodeid="_3FFE82D9-9D02-405F-8C62-BECE32681722"><path id="_CD705A04-74E0-4CD7-BB76-4E02B59C8188_1" d="M180.37496219496057 210.13369532343444L344.5859753050394 211.56161717656556 " stroke="#000000" fill="none" stroke-width="2" stroke-linecap="round" stroke-linejoin="round" marker-start="url(#_CD705A04-74E0-4CD7-BB76-4E02B59C8188start)" marker-end="url(#_CD705A04-74E0-4CD7-BB76-4E02B59C8188end)"/></g><text id="_CD705A04-74E0-4CD7-BB76-4E02B59C8188text_name" font-size="12" x="194.37496219496057" y="196.13369532343444" oryx:edgePosition="startTop" stroke-width="0pt" letter-spacing="-0.01px" fill="#000000" text-anchor="start" transform="rotate(0.49821161261365887 180.37496219496057 210.13369532343444)" visibility="inherit" oryx:fontSize="12"/></g><g class="children" style="overflow:hidden"/><g class="edge"/></g><g class="controls"><g class="dockers"/><g class="magnets"/></g></g><g id="_3E22ABA0-F845-4607-BD35-203EA21959DC" bpmn2nodeid="_9D84540E-AC7B-4E4C-B924-91AD9CEA39A3"><g class="stencils"><g class="me"><g pointer-events="painted" bpmn2nodeid="_9D84540E-AC7B-4E4C-B924-91AD9CEA39A3"><path id="_3E22ABA0-F845-4607-BD35-203EA21959DC_1" d="M445.5 212L644.59375 212 " stroke="#000000" fill="none" stroke-width="2" stroke-linecap="round" stroke-linejoin="round" marker-start="url(#_3E22ABA0-F845-4607-BD35-203EA21959DCstart)" marker-end="url(#_3E22ABA0-F845-4607-BD35-203EA21959DCend)"/></g><text id="_3E22ABA0-F845-4607-BD35-203EA21959DCtext_name" font-size="12" x="459.5" y="198" oryx:edgePosition="startTop" stroke-width="0pt" letter-spacing="-0.01px" fill="#000000" text-anchor="start" transform="rotate(360 445.5 212)" visibility="inherit" oryx:fontSize="12"/></g><g class="children" style="overflow:hidden"/><g class="edge"/></g><g class="controls"><g class="dockers"/><g class="magnets"/></g></g></g><text id="_638D34EF-3EE8-447C-8C7F-57E6EED997BC" style="stroke-width:1;fill:rgb(177,194,214);font-family:arial;font-weight:bold" font-size="12" onclick="ORYX.Plugins.CanvasTitle.openTextualAnalysis()" onmouseover="ORYX.Plugins.CanvasTitle.addToolTip('_638D34EF-3EE8-447C-8C7F-57E6EED997BC')" transform="translate(10, 20)">gestionarSaldos v.1.0 (com.fogacoop.flujofogacoop.gestionarSaldos)</text></g></g></svg>